<svg width="22" height="24" viewBox="0 0 22 24" fill="none" xmlns="http://www.w3.org/2000/svg">
<path d="M21.1988 18.498L11.4289 24.0002V19.7147L17.5161 16.3809L21.1987 18.4979L21.1988 18.498ZM21.8671 17.8954V6.38838L18.2919 8.44278V15.8388L21.8671 17.8954ZM0.801357 18.498L10.5713 24.0002V19.7147L4.48406 16.3809L0.801457 18.4979L0.801357 18.498ZM0.133057 17.8954V6.38838L3.70816 8.44278V15.8388L0.133057 17.8954ZM0.551357 5.64388L10.5713 -0.00012207V4.14328L4.15206 7.65858L4.10316 7.68658L0.551357 5.64388ZM21.4489 5.64388L11.4289 -0.00012207V4.14328L17.8481 7.65868L17.897 7.68668L21.4488 5.64398L21.4489 5.64388ZM10.5714 18.7399L4.56576 15.4526V8.93838L10.5712 12.3909V18.7399H10.5714ZM11.4289 18.7399L17.4342 15.4526V8.93838L11.4289 12.3909V18.7399ZM4.97246 8.18448L11.0012 4.88298L17.0301 8.18448L11.0013 11.651L4.97246 8.18448Z" fill="#8DD6F9"/>
</svg>
